<svg width="140" height="44" viewBox="0 0 140 44" fill="none" xmlns="http://www.w3.org/2000/svg">
<g clip-path="url(#clip0_541_9063)">
<path d="M120.835 35.4462C117.136 35.5147 113.418 35.8681 109.714 36.0096C107.61 36.0901 105.282 36.5749 103.195 36.2825C102.912 36.2428 102.419 35.6557 102.412 35.3582C102.428 32.5007 104.305 29.7427 104.465 26.9044C104.478 26.5818 103.585 24.5603 103.4 24.0988L101.193 18.5399C100.738 17.403 100.345 16.242 99.9053 15.0995C99.6238 14.3681 99.2884 13.6587 99.0049 12.9283C97.946 10.2 96.9268 7.45618 95.8051 4.75294C95.7484 4.61669 95.6165 4.22078 95.5079 4.13971C94.8063 3.61714 90.67 4.48561 89.4096 3.95632C88.8788 3.73345 88.3931 3.39177 88.1738 2.83881C88.003 2.40861 88.0255 1.90482 88.2086 1.4823C88.406 1.02535 88.7818 0.683683 89.2429 0.503899C89.9588 0.224967 96.8598 0.261715 97.5341 0.581775C97.8825 0.747155 98.1605 1.27425 98.3211 1.60338C98.692 2.36505 98.9099 3.22589 99.2023 4.02152C99.9094 5.94158 100.615 7.8519 101.287 9.78626C102.449 13.3044 104.064 17.0797 105.141 20.5788C105.733 22.0028 106.541 25.3525 107.496 26.3039C108.8 26.5761 109.926 26.4982 111.252 26.5553C114.332 26.6878 117.418 26.6181 120.499 26.6661C121.93 26.6823 123.361 26.7154 124.791 26.7654C126.686 26.8446 128.74 26.9696 130.631 26.8391C131.213 26.2892 131.595 24.9603 131.933 24.189C133.231 21.2269 134.507 18.2157 135.721 15.2203C136.264 13.8786 137.655 11.3997 137.822 10.0332L123.221 9.68569C123.103 9.59585 120.869 9.56182 120.484 9.52869L120.497 9.49323C121.044 9.3833 121.826 9.4521 122.255 9.30349C122.739 9.25321 123.9 9.272 124.441 9.25874C125.539 9.22608 126.634 9.1678 127.728 9.08397L138.145 8.88577C138.574 8.88891 138.996 8.84839 139.352 9.09791C139.503 9.36273 139.399 9.78251 139.303 10.0671C138.9 11.2605 138.372 12.4011 137.922 13.5951C136.911 16.2858 135.889 18.9588 134.885 21.6528C134.259 23.3314 133.352 25.1812 132.84 26.945C132.686 27.4736 131.998 28.5987 131.986 28.6575C131.147 28.935 128.133 28.8644 127.13 28.8725C125.232 28.8707 123.335 28.9145 121.439 29.0037C120.586 29.0214 119.547 29.0092 118.717 29.0498C115.434 28.9925 112.037 29.1492 108.746 29.1978C108.539 29.2009 107.929 29.314 107.757 29.4834C107.287 30.1782 106.196 32.8406 105.979 33.5779L108.041 33.7056C109.678 33.8383 111.19 33.8732 112.82 33.9675C115.784 34.1128 118.745 34.3187 121.701 34.585C122.547 34.6538 123.971 34.5646 124.722 34.6977C125.017 34.7969 125.358 34.8608 125.666 34.9258L125.567 34.9713L125.825 34.9395C125.499 35.0438 125.281 35.0249 124.993 35.2002C123.887 35.4339 121.963 35.2119 120.835 35.4462Z" fill="#FEFEFE"/>
<path d="M66.4279 20.9803C66.6143 20.6452 67.12 19.0809 67.2527 18.6761C67.7109 17.252 68.1842 15.8328 68.6727 14.4188C68.8066 14.037 69.0901 13.1622 69.3271 12.8847C69.8203 12.621 73.1117 12.5844 73.3481 12.8669C73.3405 13.6276 71.63 18.4376 71.2734 19.4799L68.4718 27.7439C67.9151 27.7789 63.6283 27.8493 63.3324 27.6669C63.0365 27.4845 61.7525 23.5125 61.4191 22.8629C61.1179 24.3884 60.3067 26.2569 59.7783 27.7329C59.3239 27.7969 58.226 27.7745 57.7272 27.7741C56.7063 27.773 55.5466 27.8101 54.5382 27.7271L51.5663 18.8975C50.835 16.7519 50.0886 15.0299 49.6152 12.7472C50.385 12.7062 53.097 12.5766 53.6765 12.8332C54.118 13.4118 56.7631 21.5338 57.0484 22.6806C57.81 21.2258 58.2204 19.8124 58.7239 18.2631C59.3134 16.449 59.8981 14.5864 60.5955 12.8113C61.1667 12.7068 61.4405 12.7116 62.01 12.7166C62.1985 12.7949 62.4038 12.9047 62.4919 13.1016C63.3711 15.0678 63.8056 17.2365 64.628 19.237C64.7386 19.5061 64.8439 19.8059 64.9316 20.081L65.2229 20.9293L65.3735 21.3779C65.505 21.9007 65.6269 22.166 65.8535 22.641C66.088 22.1355 66.1948 21.7916 66.2977 21.2474L66.4279 20.9803Z" fill="#FEFEFE"/>
<path d="M18.0375 20.3594C18.9889 20.5827 20.3648 21.4456 21.0792 22.1331C21.4079 22.4494 20.7032 23.2517 20.5096 23.5162C19.5527 24.8235 18.4025 25.755 16.9718 26.5113C14.3631 27.8623 11.3317 28.1466 8.51735 27.3044C5.68541 26.4262 3.31101 24.4719 1.90451 21.8615C-1.06711 16.2173 0.797487 8.85412 6.5684 5.84177C9.20589 4.45179 12.29 4.17569 15.1324 5.07512C17.5926 5.85175 19.6971 7.40902 21.0904 9.59174C21.1466 9.67967 21.2149 9.94319 21.1672 10.0334C20.8037 10.7199 19.1287 11.5252 18.4601 11.8496C18.3482 11.9041 18.2341 11.9539 18.118 11.999C17.5978 11.4445 16.7659 10.3814 16.1921 10.0192C14.3641 8.5671 11.5707 8.32845 9.37722 8.99043C8.73575 9.18399 8.17435 9.48789 7.58651 9.80163C6.71073 10.4884 5.58876 11.733 5.19376 12.7663C3.3906 17.4836 5.44013 23.0417 10.8368 23.7008C12.8598 23.9315 14.8924 23.3562 16.4946 22.0994C17.1417 21.5895 17.5201 20.8423 18.0375 20.3594Z" fill="#FEFEFE"/>
<path d="M40.7854 12.7304C42.4153 12.5498 44.3369 13.1836 45.6461 14.1606C47.2067 15.3083 48.2343 17.0407 48.4936 18.9606C48.8037 21.1024 48.4103 23.2515 47.0902 25.0023C45.9349 26.5042 44.2321 27.4877 42.3539 27.7376C40.3859 27.7941 38.991 27.7156 37.3111 26.4703C34.7561 24.5762 34.1076 22.1475 34.3905 19.067C34.7012 15.6828 37.4983 13.1868 40.7854 12.7304ZM41.6266 23.7351C45.8571 23.0397 45.0464 16.5291 41.2995 16.8977C40.7359 16.9564 40.2294 17.0207 39.7687 17.3733C37.2443 19.3048 38.2358 23.7087 41.6266 23.7351Z" fill="#FEFEFE"/>
<path d="M77.683 14.3316C80.7332 11.8538 84.2602 12.3305 87.0747 14.878C88.3973 16.1587 89.146 18.1831 89.133 20.012C89.1153 22.5898 89.161 25.1833 89.1248 27.7636C87.8856 27.7672 86.3649 27.8101 85.149 27.7449C85.0861 25.3198 85.1572 22.8822 85.1353 20.4557C85.1319 20.0756 85.1073 19.6696 85.0192 19.2997C84.8764 18.7003 84.5601 18.1562 84.1099 17.7356C82.0851 15.8285 79.0513 17.1946 78.9632 20.1153C78.968 20.9525 79.0458 27.5786 78.8839 27.8075C77.8893 27.706 75.9246 27.7698 74.876 27.7801C74.7913 26.4321 74.8527 24.6194 74.8411 23.2341C74.8316 22.0385 74.7701 19.851 74.962 18.7496C75.2449 17.1249 76.3078 15.2764 77.683 14.3316Z" fill="#FEFEFE"/>
<path d="M78.8842 27.8075C78.7223 26.9747 78.766 20.8969 78.9634 20.1152C78.9682 20.9525 79.0461 27.5786 78.8842 27.8075Z" fill="#E1D5DD"/>
<path d="M129.175 14.4889C129.465 14.4932 131.347 14.5711 131.515 14.4168C132.054 13.923 132.247 11.9486 133.013 11.7482C133.271 11.7585 133.377 11.8174 133.609 11.9175C133.96 12.3707 133.202 13.7816 133.059 14.4145C133.323 14.4613 133.595 14.4765 133.783 14.6576C133.942 14.9057 133.896 15.2111 133.9 15.518C133.841 15.6823 133.85 15.764 133.715 15.8327C133.45 15.9668 132.723 15.8612 132.426 15.7985C132.299 16.4599 131.689 17.2745 131.467 18.4181C131.63 18.4648 131.905 18.5348 132.053 18.5963C132.211 18.8119 132.349 19.1281 132.31 19.3979C132.289 19.5304 132.216 19.6491 132.107 19.7275C131.801 19.949 131.245 19.9016 130.889 19.8359C130.72 20.428 130.305 21.245 130.079 21.8529C131 22.0177 131.271 21.9911 131.186 23.0379C130.995 23.3261 129.917 23.1938 129.522 23.2218C129.272 24 128.961 24.735 128.72 25.5184C128.112 25.4442 127.31 25.4478 127.664 24.5239C127.842 24.061 128.084 23.6584 128.211 23.1727C127.386 23.1787 126.504 23.1698 125.684 23.2112C125.586 23.4921 124.889 25.3755 124.77 25.4498C123.065 25.551 124.113 24.0507 124.411 23.1617C123.576 23.1822 122.741 23.1963 121.906 23.204C121.743 23.6036 121.193 25.3792 120.795 25.4433C119.185 25.7022 120.358 23.7718 120.534 23.1529C118.977 23.1965 117.419 23.21 115.862 23.1935C115.254 23.1876 114.21 23.1962 113.621 23.1356C113.606 22.8265 113.561 22.4357 113.667 22.1542C114.259 21.6461 119.687 22.2254 121.152 21.7776C121.307 21.0273 121.601 20.6258 121.908 19.9481C121.543 19.6427 118.116 20.07 117.474 19.7575C117.431 19.7366 117.399 19.5501 117.382 19.4838C117.399 19.3269 117.374 18.7252 117.371 18.5358C118.645 18.3925 120.974 18.4711 122.346 18.4841C122.634 17.929 123.118 16.5601 123.366 15.9159C123.036 15.7025 121.154 16.0172 120.688 15.8188C120.577 15.7714 120.584 15.6757 120.548 15.5373L120.575 14.6024C121.623 14.4022 123.482 14.8049 124.13 14.1182C124.547 13.6765 124.489 12.0122 125.186 11.7626C125.409 11.6947 125.945 11.8769 126.075 12.0759C126.1 12.6134 125.464 13.8765 125.237 14.473C126.009 14.4988 126.781 14.5078 127.553 14.5001L128.024 14.0748C128.181 13.4753 128.618 12.3112 128.861 11.707C129.384 11.775 129.953 11.8485 129.779 12.6101C129.632 13.2515 129.336 13.8285 129.175 14.4889ZM128.728 21.8703L129.512 19.8842C129.019 19.8537 127.325 19.765 126.937 19.9385C126.816 20.5324 126.144 21.5082 126.608 21.948C127.036 22.1086 128.233 21.9473 128.728 21.8703ZM124.932 21.8171C125.153 21.1187 125.387 20.5157 125.656 19.8329C125.383 19.8423 123.298 19.8239 123.205 19.8905C122.806 20.6586 122.627 21.087 122.44 21.9376C123.382 21.979 124.009 21.9644 124.932 21.8171ZM127.568 18.4636C130.641 18.6219 130.039 18.6149 131.118 15.8469C130.313 15.8764 129.373 15.8508 128.557 15.8484C128.399 16.5871 127.82 17.5583 127.568 18.4636ZM124.734 15.8216C124.637 16.3082 123.978 17.7554 123.768 18.4708C124.406 18.4781 125.675 18.5285 126.263 18.4722C126.577 17.5873 126.843 16.8375 127.23 15.9786L127.171 15.8871C126.775 15.7906 125.374 15.9051 124.734 15.8216Z" fill="#29BED8"/>
<path d="M117.382 19.4838C117.901 19.4563 121.742 19.3773 121.974 19.5397C122.011 19.7774 122.006 19.698 121.908 19.9481C121.544 19.6426 118.116 20.07 117.474 19.7574C117.431 19.7365 117.399 19.5501 117.382 19.4838Z" fill="#46A2BF"/>
<path d="M120.548 15.5372C121.206 15.5092 122.69 15.46 123.323 15.5286C123.422 15.7001 123.386 15.6793 123.366 15.9159C123.036 15.7024 121.154 16.0171 120.688 15.8188C120.577 15.7713 120.583 15.6757 120.548 15.5372Z" fill="#4D8AA2"/>
<path d="M132.053 18.5963C132.211 18.8119 132.349 19.1281 132.31 19.3979C132.289 19.5304 132.216 19.6491 132.107 19.7275C131.801 19.949 131.245 19.9016 130.889 19.8359C131.236 19.1075 132.317 19.8638 132.053 18.5963Z" fill="#46A2BF"/>
<path d="M132.427 15.7984C132.563 15.4206 133.544 15.5133 133.9 15.5179C133.842 15.6823 133.85 15.764 133.715 15.8327C133.451 15.9667 132.723 15.8612 132.427 15.7984Z" fill="#4D8AA2"/>
<path d="M123.205 19.8905L123.182 19.7043C123.363 19.3083 125.363 19.375 125.726 19.5543C125.76 19.7184 125.76 19.6593 125.656 19.8329C125.383 19.8423 123.298 19.8239 123.205 19.8905Z" fill="#46A2BF"/>
<path d="M126.938 19.9385C126.966 19.5999 127.106 19.5113 127.44 19.4755C127.81 19.4358 129.279 19.3543 129.514 19.5411L129.512 19.8842C129.019 19.8536 127.326 19.7649 126.938 19.9385Z" fill="#46A2BF"/>
<path d="M124.733 15.8216C124.77 15.7338 124.807 15.578 124.919 15.5655C125.495 15.5008 126.754 15.3577 127.263 15.5999C127.329 15.7935 127.304 15.7461 127.23 15.9786L127.171 15.8871C126.775 15.7906 125.374 15.905 124.733 15.8216Z" fill="#4D8AA2"/>
<path d="M128.558 15.8483C128.565 15.8077 128.582 15.6478 128.614 15.637C129.122 15.4602 130.669 15.3896 131.147 15.5841L131.188 15.6975L131.119 15.8468C130.313 15.8764 129.373 15.8508 128.558 15.8483Z" fill="#4D8AA2"/>
<path d="M26.6209 13.8296C28.6033 12.4901 30.9642 12.6943 33.2571 12.6976C33.3778 14.0245 33.3401 15.543 33.3256 16.8848C30.655 16.842 28.8194 16.2826 27.4405 18.9795C27.0527 20.0453 27.1702 21.4317 27.172 22.5753C27.1883 24.3023 27.1825 26.0295 27.1546 27.7564C26.1582 27.8276 24.3572 27.7658 23.3009 27.7632C23.2357 26.089 23.3228 24.3004 23.2855 22.6387C23.1892 18.3488 23.1356 16.5761 26.6209 13.8296Z" fill="#FEFEFE"/>
<path d="M32.0562 29.9389C34.1876 29.8002 33.9319 29.7286 34.7314 31.619C35.0769 32.4356 36.2105 35.4119 36.7003 35.931C37.3945 35.8637 39.0318 30.6495 39.607 30.0954C39.9598 29.7556 41.0663 29.9115 41.5187 29.9331C41.6182 30.9978 41.5926 32.3661 41.591 33.4453C41.5815 35.1826 41.5839 36.92 41.5981 38.6573C41.1074 38.6817 40.5533 38.6607 40.0578 38.6534C39.926 36.7185 40.0472 35.1463 39.9562 33.3321C39.2102 34.9615 38.5593 36.6381 37.7552 38.2405C37.6685 38.4134 37.5402 38.5428 37.3514 38.5995C37.0195 38.6992 36.4814 38.712 36.1889 38.5113C35.2219 37.8475 34.2488 33.5633 33.6914 33.283C33.6283 34.0571 33.6253 38.4386 33.4705 38.6889C33.3425 38.7341 33.2242 38.7725 33.0885 38.6981L32.086 38.6386C31.9971 37.8955 32.0324 36.1124 32.0377 35.2799C32.0489 33.5368 31.9997 31.6709 32.0562 29.9389Z" fill="#29BED8"/>
<path d="M33.0889 38.6982L33.3378 38.6851C33.5045 38.4567 33.0896 33.5371 33.5117 33.1794L33.6918 33.283C33.6287 34.0571 33.6257 38.4386 33.4709 38.6889C33.3429 38.7341 33.2246 38.7725 33.0889 38.6982Z" fill="#2F7964"/>
<path d="M2.53418 29.9583C2.87451 29.9132 3.64305 29.8262 3.95213 29.9551C4.09032 29.994 4.17668 30.1705 4.21937 30.3099C4.81182 32.2435 5.23919 34.1732 5.97201 36.0661C6.11612 35.3675 7.50295 30.4609 7.81057 29.9699C8.23664 29.9112 8.84258 29.905 9.28443 29.8877C9.15846 31.2462 8.91458 31.832 8.54145 33.1319C8.21601 34.3233 7.93216 35.2994 7.54373 36.4692C7.30948 37.1946 7.1581 37.9236 6.88273 38.6386C6.23112 38.6798 5.64384 38.6589 4.99086 38.6414C4.45386 37.142 4.05812 35.1158 3.56854 33.5711C3.21798 32.465 2.64094 31.0898 2.53418 29.9583Z" fill="#29BED8"/>
<path d="M9.31399 33.7571C9.77121 33.3636 10.0624 33.2324 10.6449 33.062C11.5685 32.7918 13.2165 33.1538 13.6149 34.1611C14.2664 35.1427 14.3964 36.1348 14.3933 37.2906C14.3921 37.7326 14.3598 38.319 14.064 38.6771C12.892 38.5648 12.5922 39.0788 12.5303 37.5741C12.1517 38.1613 12.0879 38.3217 11.4594 38.6354C11.3261 38.6333 11.1928 38.6299 11.0595 38.6252C9.2674 38.5645 8.75081 37.1419 8.8045 35.5854C8.86011 34.9202 8.90308 34.2948 9.31399 33.7571ZM11.6803 37.0032C12.2074 36.8217 12.2551 36.8013 12.5529 36.3365C12.6051 35.7034 12.6734 35.3455 12.1416 34.8698C11.7135 34.4869 10.9603 34.7008 10.6288 35.1087C10.2865 36.2617 10.4045 36.7751 11.6803 37.0032Z" fill="#29BED8"/>
<path d="M13.6152 34.1611C14.2667 35.1427 14.3967 36.1348 14.3936 37.2906C14.3924 37.7326 14.3601 38.319 14.0643 38.6772C13.8683 37.9328 14.0345 36.5522 13.9688 35.7421C13.9087 35.0018 13.8298 34.8474 13.6152 34.1611Z" fill="#2F7964"/>
<path d="M10.3513 36.7754C10.0357 36.1816 9.79936 35.4226 10.6292 35.1087C10.2868 36.2617 10.4048 36.7751 11.6806 37.0032C11.0452 37.179 10.8962 37.1059 10.3513 36.7754Z" fill="#28BDCB"/>
<path d="M43.9313 33.0123C48.0455 32.7909 47.6526 35.5899 47.5156 38.6634C47.1621 38.6611 46.2418 38.7221 46.0092 38.5295C45.7741 38.1128 46.0156 37.855 46.0797 37.3633C45.7601 37.4566 45.5663 38.2849 45.2494 38.4581C44.0958 39.1136 42.3294 37.9279 42.2364 36.6864C42.0887 34.7133 42.0743 33.8757 43.9313 33.0123ZM45.2528 36.961C45.5371 36.7654 45.6191 36.7028 45.8519 36.4495C45.9927 35.2563 45.9677 34.6154 44.5403 34.7203C44.2118 34.8643 44.0003 34.9797 43.9049 35.3349C43.5889 36.5126 44.2544 36.9941 45.2528 36.961Z" fill="#29BED8"/>
<path d="M110.047 37.7948C111.064 37.6908 112.059 38.1413 112.651 38.9745C113.244 39.8077 113.343 40.8951 112.911 41.8217C112.479 42.7483 111.582 43.3713 110.563 43.4528C109.012 43.577 107.649 42.4292 107.508 40.8788C107.367 39.3286 108.499 37.9533 110.047 37.7948Z" fill="#29BED8"/>
<path d="M122.739 37.7987C124.305 37.6392 125.701 38.7867 125.849 40.3546C125.997 41.9226 124.839 43.3105 123.27 43.4463C121.718 43.5805 120.348 42.4375 120.202 40.8863C120.056 39.3351 121.189 37.9564 122.739 37.7987Z" fill="#29BED8"/>
<path d="M25.3677 33.0198C27.5732 32.8457 28.6775 34.3555 28.3913 36.4558C27.5458 36.4397 25.3633 36.3883 24.6303 36.4841C26.2136 37.4381 26.4256 36.1747 27.5661 37.0695C28.0624 37.5589 27.8518 37.7993 27.3394 38.1412C26.48 38.7148 25.4226 38.859 24.5189 38.2948C23.8769 37.8906 23.418 37.2516 23.2399 36.5141C22.8502 34.8312 23.6593 33.4055 25.3677 33.0198ZM25.908 35.2476L26.92 35.2437C26.5964 34.9791 26.2939 34.6506 25.8875 34.6469C25.3676 34.7803 25.0329 34.9566 24.5782 35.2436L25.908 35.2476Z" fill="#29BED8"/>
<path d="M21.1511 33.0227C21.61 32.9164 21.9658 32.922 22.4355 32.9412C22.5759 34.0432 22.7964 36.7094 22.035 37.584C20.8164 39.3894 17.8052 38.7049 17.311 36.7074C17.1119 35.9028 17.2041 33.8867 17.2828 33.0158C18.777 32.9187 18.8882 32.7876 18.8449 34.3706C18.7987 36.0639 18.842 37.9623 20.9645 36.3835C20.9775 35.8101 20.9203 33.2871 21.1511 33.0227Z" fill="#29BED8"/>
<path d="M21.1504 33.0227C21.6093 32.9164 21.9651 32.922 22.4348 32.9412C22.5751 34.0432 22.7957 36.7094 22.0343 37.584C22.3484 35.8754 22.2595 34.8362 22.2638 33.1133C21.8972 33.1025 21.5062 33.1038 21.1504 33.0227Z" fill="#1B9D90"/>
<path d="M107.085 18.3463C106.767 16.3874 105.24 12.2925 105.273 10.944C107.624 11.6044 109.12 12.5252 111.298 13.2579C111.341 13.5752 111.402 13.9601 111.116 14.1858C110.545 14.2472 109.25 14.5356 108.698 14.6652C107.906 15.5122 107.74 17.2743 107.085 18.3463Z" fill="#29BED8"/>
<path d="M15.6204 30.3655C15.8177 30.3454 16.237 30.373 16.4516 30.3821C16.5273 31.2468 16.572 38.1721 16.4397 38.4822C16.3875 38.6047 16.2533 38.617 16.1344 38.6612L14.9752 38.6597C14.9471 36.8527 14.9402 35.0454 14.9545 33.2382C14.9585 32.605 14.9332 31.1037 15.0205 30.5234C15.1584 30.3765 15.4094 30.3856 15.6204 30.3655Z" fill="#29BED8"/>
<path d="M50.5926 33.0567C50.9671 32.9658 52.5092 32.9777 52.9394 32.9974L52.8983 33.0088C52.5848 33.0947 52.4201 33.0137 52.2237 33.1936C52.1307 33.3784 52.1699 33.8344 52.1761 34.0645C52.1864 34.2287 52.1827 34.4933 52.263 34.6246L51.9138 34.6225C51.4201 34.6434 51.0052 34.6609 50.5128 34.7233L50.0837 35.0252C49.865 36.3503 50.0423 37.407 49.9185 38.669C49.4954 38.6678 48.9356 38.65 48.5235 38.676C48.1651 38.3795 48.3421 35.2734 48.4928 34.7545C48.5631 33.9221 49.8546 33.1015 50.5926 33.0567Z" fill="#29BED8"/>
<path d="M48.5235 38.676C48.1651 38.3795 48.3421 35.2734 48.4928 34.7545C48.6449 35.4778 48.6488 37.9702 48.5235 38.676Z" fill="#46A2BF"/>
<path d="M50.5928 33.0567C50.9673 32.9658 52.5093 32.9777 52.9396 32.9974L52.8985 33.0088C52.5849 33.0947 52.4203 33.0137 52.2238 33.1936C52.1309 33.3784 52.1701 33.8344 52.1763 34.0645C52.1866 34.2287 52.1828 34.4933 52.2631 34.6246L51.914 34.6225C52.0248 34.4769 51.9898 33.3199 51.9888 33.0756C51.5233 33.0799 51.0579 33.0736 50.5928 33.0567Z" fill="#4D8AA2"/>
<path d="M53.0132 31.4695C54.4938 31.3436 54.5725 31.3618 54.4957 32.8711C55.4802 33.0154 55.2961 33.4161 55.2774 34.3115C55.104 34.9942 54.2974 34.4835 53.8488 34.7688C53.9587 34.8783 53.9784 34.8849 54.1237 34.9317C53.8598 34.9326 53.2371 34.8914 53.0377 35.0195L52.9573 35.1735C52.9448 34.9647 52.9465 34.9093 52.8609 34.7209C52.7152 34.6003 52.4625 34.6272 52.2634 34.6246C52.1831 34.4933 52.1869 34.2287 52.1766 34.0645C52.1704 33.8343 52.1311 33.3784 52.2241 33.1936C52.4206 33.0136 52.5852 33.0947 52.8988 33.0088L52.9398 32.9974C52.9633 32.4996 52.9784 31.9632 53.0132 31.4695Z" fill="#29BED8"/>
<path d="M52.1768 34.0645C52.3225 34.2473 52.4215 34.3268 52.6967 34.3389C53.576 34.3774 54.3845 34.251 55.2776 34.3115C55.1042 34.9942 54.2976 34.4835 53.8489 34.7688C53.9589 34.8783 53.9786 34.8849 54.1238 34.9317C53.8599 34.9326 53.2373 34.8914 53.0379 35.0195L52.9574 35.1735C52.945 34.9647 52.9467 34.9093 52.8611 34.7209C52.7154 34.6003 52.4626 34.6272 52.2636 34.6246C52.1833 34.4933 52.1871 34.2287 52.1768 34.0645Z" fill="#46A2BF"/>
<path d="M54.1239 34.9318C54.6714 35.0048 54.4757 36.4274 54.5328 36.9376C54.8806 36.9629 55.2544 36.9832 55.5987 37.0209C55.8627 37.2703 55.9455 38.4509 55.6023 38.7191C52.8376 38.4514 52.8957 37.6876 52.9575 35.1735L53.038 35.0196C53.2373 34.8914 53.86 34.9326 54.1239 34.9318Z" fill="#29BED8"/>
<path d="M55.5986 37.0209C55.8627 37.2703 55.9454 38.4509 55.6022 38.7191C55.5173 38.3114 55.452 37.3971 55.5986 37.0209Z" fill="#1B9D90"/>
<path d="M113.63 9.49224C113.905 9.47263 114.252 9.47912 114.53 9.47933C117.105 9.48131 119.682 9.31836 122.254 9.30347C121.826 9.45207 121.044 9.38327 120.497 9.4932L120.484 9.52866C120.869 9.5618 123.103 9.59582 123.22 9.68567C122.792 9.74463 120.546 9.67589 120.048 9.66797C118.091 9.64153 116.136 9.63019 114.179 9.63381C114.017 9.60156 113.795 9.53583 113.63 9.49224Z" fill="#AFB3BD"/>
<path d="M111.298 13.2579C111.551 13.3959 111.643 13.4356 111.818 13.6718C111.868 13.9028 111.879 13.8131 111.765 14.026C111.579 14.1747 111.355 14.1666 111.116 14.1858C111.402 13.9601 111.341 13.5752 111.298 13.2579Z" fill="#46A2BF" fill-opacity="0.988235"/>
<path d="M124.722 34.6977C125.135 34.7073 125.462 34.7284 125.873 34.7694C126.142 34.8436 126.266 34.8298 126.436 35.012L126.393 35.118L124.993 35.2001C125.281 35.0249 125.499 35.0438 125.825 34.9395L125.567 34.9713L125.666 34.9258C125.358 34.8608 125.017 34.7969 124.722 34.6977Z" fill="#E1D5DD" fill-opacity="0.827451"/>
<path d="M113.103 9.62313C112.656 9.63447 111.546 9.67547 111.136 9.54586C111.692 9.47863 112.065 9.4901 112.624 9.50049C112.765 9.5341 112.973 9.57763 113.103 9.62313Z" fill="#E1D5DD" fill-opacity="0.254902"/>
<path d="M125.873 34.7694L126.493 34.7829C126.709 34.804 126.988 34.7959 127.127 34.9449C126.993 35.1608 126.631 35.1226 126.393 35.118L126.435 35.012C126.265 34.8297 126.142 34.8435 125.873 34.7694Z" fill="#E1D5DD" fill-opacity="0.462745"/>
<path d="M112.624 9.50049C112.959 9.4938 113.295 9.491 113.63 9.49223C113.796 9.53582 114.017 9.60154 114.18 9.63379C113.8 9.64609 113.482 9.63823 113.103 9.62313C112.972 9.57763 112.765 9.53411 112.624 9.50049Z" fill="#AFB3BD" fill-opacity="0.592157"/>
</g>
<defs>
<clipPath id="clip0_541_9063">
<rect width="139.906" height="44" fill="white"/>
</clipPath>
</defs>
</svg>
